<?xml version="1.0" encoding="UTF-8"?><svg xmlns="http://www.w3.org/2000/svg" xmlns:xlink="http://www.w3.org/1999/xlink" viewBox="0 0 1098.21 1220.39"><defs><style>.h{fill:url(#e);}.i{fill:url(#d);}.j{fill:url(#g);}.k{fill:url(#f);}.l{fill:#4b53d9;}</style><linearGradient id="d" x1="112.51" y1="863.38" x2="426.62" y2="549.27" gradientTransform="matrix(1, 0, 0, 1, 0, 0)" gradientUnits="userSpaceOnUse"><stop offset="0" stop-color="#4b53d9"/><stop offset=".21" stop-color="#4a52d6"/><stop offset=".36" stop-color="#484fcc"/><stop offset=".49" stop-color="#444bbc"/><stop offset=".61" stop-color="#4044a6"/><stop offset=".73" stop-color="#393c89"/><stop offset=".83" stop-color="#323266"/><stop offset=".94" stop-color="#29273d"/><stop offset="1" stop-color="#231f20"/></linearGradient><linearGradient id="e" x1="192.83" y1="408.47" x2="95.98" y2="-83.02" gradientTransform="matrix(1, 0, 0, 1, 0, 0)" gradientUnits="userSpaceOnUse"><stop offset=".52" stop-color="#4b53d9"/><stop offset="1" stop-color="#231f20"/></linearGradient><linearGradient id="f" x1="390.18" y1="1254.06" x2="704.29" y2="939.96" xlink:href="#d"/><linearGradient id="g" x1="460.68" y1="682.69" x2="401.77" y2="383.75" gradientTransform="matrix(1, 0, 0, 1, 0, 0)" gradientUnits="userSpaceOnUse"><stop offset=".52" stop-color="#4b53d9"/><stop offset="1" stop-color="#231f20"/></linearGradient></defs><g id="a"/><g id="b"><g id="c"><path class="i" d="M444.21,829.7H111.13c-61.37,0-111.13-49.76-111.13-111.13,0-20.24,5.41-39.22,14.87-55.56,19.22,33.22,55.14,55.56,96.26,55.56h66.08c68.17,68.64,162.62,111.13,267,111.13Z"/><path class="h" d="M222.26,111.13V440.57H111.13V134.27c18.78-14.51,42.33-23.14,67.87-23.14h43.26Z"/><path class="l" d="M820.54,376.33v14.17c-32-8.38-65.01-12.61-98.66-12.61h-12.47v-1.56c0-146.46-118.74-265.2-265.2-265.2H179.01c-25.55,0-49.09,8.63-67.88,23.14-11.43,8.83-21.11,19.84-28.39,32.43-9.46-16.35-14.87-35.32-14.87-55.57C67.88,49.76,117.63,0,179.01,0H444.21c207.84,0,376.33,168.5,376.33,376.33Z"/><path class="l" d="M721.88,514.62c31.28,0,61.7,5.62,90.56,16.73-35.9,170.42-187.12,298.35-368.23,298.35-104.38,0-198.82-42.48-266.99-111.13-67.59-68.02-109.34-161.74-109.34-265.2h111.13c0,146.46,118.73,265.2,265.2,265.2,125.38,0,230.44-87.02,258.08-203.95h19.59Z"/><path class="k" d="M721.88,1220.39H388.8c-61.37,0-111.13-49.76-111.13-111.13,0-20.24,5.41-39.22,14.87-55.56,19.22,33.22,55.14,55.56,96.26,55.56h66.08c68.17,68.64,162.62,111.13,267,111.13Z"/><path class="j" d="M499.93,501.82v196.09c-18.1,4.11-36.71,6.18-55.71,6.18s-37.36-2.05-55.42-6.13v-173c18.78-14.5,42.33-23.14,67.88-23.14h43.25Z"/><path class="l" d="M1098.21,767.02v77.04c0,207.83-168.49,376.33-376.33,376.33-104.38,0-198.83-42.49-267-111.13-67.59-68.03-109.34-161.75-109.34-265.2h111.13c0,146.46,118.74,265.2,265.21,265.2s265.2-118.74,265.2-265.2v-77.04c0-146.46-118.74-265.2-265.2-265.2H456.67c-25.55,0-49.09,8.63-67.87,23.14-11.44,8.83-21.11,19.84-28.39,32.43-9.46-16.35-14.87-35.32-14.87-55.56,0-61.37,49.76-111.13,111.13-111.13h265.21c207.83,0,376.33,168.49,376.33,376.33Z"/></g></g></svg>